STARTFONT 2.1
FONT -mplus-gothic-medium-R-normal--10-100-75-75-C-100-jisx0213.2004-0
SIZE 10 75 75
FONTBOUNDINGBOX 10 11 0 -2
STARTPROPERTIES 23
FONTNAME_REGISTRY ""
FOUNDRY "mplus"
FAMILY_NAME "gothic"
WEIGHT_NAME "medium"
SLANT "R"
SETWIDTH_NAME "normal"
ADD_STYLE_NAME ""
PIXEL_SIZE 10
POINT_SIZE 100
RESOLUTION_X 75
RESOLUTION_Y 75
SPACING "C"
AVERAGE_WIDTH 100
CHARSET_REGISTRY "jisx0213.2004"
CHARSET_ENCODING "0"
COPYRIGHT "Copyright (C) 2002-2004 COZ"
WEIGHT 10
X_HEIGHT 11
QUAD_WIDTH 12
DEFAULT_CHAR 8
FONT_DESCENT 2
FONT_ASCENT 9
ENDPROPERTIES
CHARS 18
STARTCHAR 0x2238
ENCODING 8760
SWIDTH 960 0
DWIDTH 10 0
BBX 10 11 0 -2
BITMAP
0000
0000
0000
0000
0000
0000
0000
0000
0080
0240
0100
ENDCHAR
STARTCHAR 0x2237
ENCODING 8759
SWIDTH 960 0
DWIDTH 10 0
BBX 10 11 0 -2
BITMAP
0000
0000
0000
0000
0000
0000
0000
0180
0240
0240
0180
ENDCHAR
STARTCHAR 0x2321
ENCODING 8993
SWIDTH 960 0
DWIDTH 10 0
BBX 10 11 0 -2
BITMAP
0000
4000
7000
4C00
4200
4100
4200
4C00
7000
4000
0000
ENDCHAR
STARTCHAR 0x2322
ENCODING 8994
SWIDTH 960 0
DWIDTH 10 0
BBX 10 11 0 -2
BITMAP
0000
4000
7000
7C00
7E00
7F00
7E00
7C00
7000
4000
0000
ENDCHAR
STARTCHAR 0x2323
ENCODING 8995
SWIDTH 960 0
DWIDTH 10 0
BBX 10 11 0 -2
BITMAP
0000
0100
0700
1900
2100
4100
2100
1900
0700
0100
0000
ENDCHAR
STARTCHAR 0x2324
ENCODING 8996
SWIDTH 960 0
DWIDTH 10 0
BBX 10 11 0 -2
BITMAP
0000
0100
0700
1F00
3F00
7F00
3F00
1F00
0700
0100
0000
ENDCHAR
STARTCHAR 0x2639
ENCODING 9785
SWIDTH 960 0
DWIDTH 10 0
BBX 10 11 0 -2
BITMAP
0000
0800
1400
2200
4100
4100
4100
3600
1400
3E00
0000
ENDCHAR
STARTCHAR 0x263A
ENCODING 9786
SWIDTH 960 0
DWIDTH 10 0
BBX 10 11 0 -2
BITMAP
0000
0800
1C00
3E00
7F00
7F00
7F00
2A00
0800
3E00
0000
ENDCHAR
STARTCHAR 0x263B
ENCODING 9787
SWIDTH 960 0
DWIDTH 10 0
BBX 10 11 0 -2
BITMAP
0000
0800
1400
2200
4100
4100
4100
2200
1400
0800
0000
ENDCHAR
STARTCHAR 0x263C
ENCODING 9788
SWIDTH 960 0
DWIDTH 10 0
BBX 10 11 0 -2
BITMAP
0000
0800
1C00
3E00
7F00
7F00
7F00
3E00
1C00
0800
0000
ENDCHAR
STARTCHAR 0x263D
ENCODING 9789
SWIDTH 960 0
DWIDTH 10 0
BBX 10 11 0 -2
BITMAP
0000
0000
0000
3600
4900
4100
4100
2200
1400
0800
0000
ENDCHAR
STARTCHAR 0x263E
ENCODING 9790
SWIDTH 960 0
DWIDTH 10 0
BBX 10 11 0 -2
BITMAP
0000
0000
0000
3600
7F00
7F00
7F00
3E00
1C00
0800
0000
ENDCHAR
STARTCHAR 0x263F
ENCODING 9791
SWIDTH 960 0
DWIDTH 10 0
BBX 10 11 0 -2
BITMAP
0000
1C00
2200
1400
6300
8080
9480
7700
1400
3E00
0000
ENDCHAR
STARTCHAR 0x2640
ENCODING 9792
SWIDTH 960 0
DWIDTH 10 0
BBX 10 11 0 -2
BITMAP
0000
1C00
3E00
1C00
7F00
FF80
FF80
6B00
0800
3E00
0000
ENDCHAR
STARTCHAR 0x2668
ENCODING 9832
SWIDTH 960 0
DWIDTH 10 0
BBX 10 11 0 -2
BITMAP
0000
0800
4100
1C00
3E00
3E00
3E00
1C00
4100
0800
0000
ENDCHAR
STARTCHAR 0x2666
ENCODING 9830
SWIDTH 960 0
DWIDTH 10 0
BBX 10 11 0 -2
BITMAP
0000
0000
3E00
7F00
7F00
4900
4900
7700
3E00
2A00
0000
ENDCHAR
STARTCHAR 0x266C
ENCODING 9836
SWIDTH 960 0
DWIDTH 10 0
BBX 10 11 0 -2
BITMAP
0000
0000
0C00
0600
0700
0700
0F00
7F00
3E00
1C00
0000
ENDCHAR
STARTCHAR 0x266A
ENCODING 9834
SWIDTH 960 0
DWIDTH 10 0
BBX 10 11 0 -2
BITMAP
0000
0000
0800
0800
1C00
1C00
3E00
3E00
3E00
1C00
0000
ENDCHAR
ENDFONT
